<svg width="24" height="24" viewBox="0 0 24 24" fill="none" xmlns="http://www.w3.org/2000/svg">
<path d="M12 12C13.6569 12 15 10.6569 15 9C15 7.34315 13.6569 6 12 6C10.3431 6 9 7.34315 9 9C9 10.6569 10.3431 12 12 12Z" stroke="#ACADC1" stroke-width="2" stroke-linecap="round" stroke-linejoin="round"/>
<path fill-rule="evenodd" clip-rule="evenodd" d="M12 1C5.92487 1 1 5.92487 1 12C1 18.0751 5.92487 23 12 23C18.0751 23 23 18.0751 23 12C23 5.92487 18.0751 1 12 1ZM3 12C3 7.02944 7.02944 3 12 3C16.9706 3 21 7.02944 21 12C21 13.7115 20.5222 15.3115 19.6928 16.6738C19.4617 16.1204 19.1066 15.617 18.6496 15.1992C17.8003 14.4227 16.666 14 15.5 14H8.5C7.33401 14 6.19973 14.4227 5.35036 15.1992C4.89342 15.617 4.53833 16.1204 4.3072 16.6738C3.47776 15.3115 3 13.7115 3 12ZM6 18.7083C7.59227 20.1334 9.69494 21 12 21C14.3051 21 16.4077 20.1334 18 18.7083V18.2C18 17.6469 17.7605 17.0962 17.3001 16.6753C16.8367 16.2516 16.1905 16 15.5 16H8.5C7.80948 16 7.16328 16.2516 6.6999 16.6753C6.23951 17.0962 6 17.6469 6 18.2V18.7083Z" fill="#ACADC1"/>
</svg>
