<svg width="24" height="24" viewBox="0 0 24 24" fill="none" xmlns="http://www.w3.org/2000/svg">
<path d="M2 5C2 3.34315 3.34315 2 5 2H8C9.65685 2 11 3.34315 11 5V10C11 11.6569 9.65685 13 8 13H5C3.34315 13 2 11.6569 2 10V5ZM5 4C4.44772 4 4 4.44772 4 5V10C4 10.5523 4.44772 11 5 11H8C8.55228 11 9 10.5523 9 10V5C9 4.44772 8.55228 4 8 4H5Z" fill="#ACADC1" />
<path d="M2 18C2 16.3431 3.34315 15 5 15H8C9.65685 15 11 16.3431 11 18V19C11 20.6569 9.65685 22 8 22H5C3.34315 22 2 20.6569 2 19V18ZM5 17C4.44772 17 4 17.4477 4 18V19C4 19.5523 4.44772 20 5 20H8C8.55228 20 9 19.5523 9 19V18C9 17.4477 8.55228 17 8 17H5Z" fill="#ACADC1" />
<path d="M13 5C13 3.34315 14.3431 2 16 2H19C20.6569 2 22 3.34315 22 5V6C22 7.65685 20.6569 9 19 9H16C14.3431 9 13 7.65685 13 6V5ZM16 4C15.4477 4 15 4.44772 15 5V6C15 6.55228 15.4477 7 16 7H19C19.5523 7 20 6.55228 20 6V5C20 4.44772 19.5523 4 19 4H16Z" fill="#ACADC1" />
<path d="M13 14C13 12.3431 14.3431 11 16 11H19C20.6569 11 22 12.3431 22 14V19C22 20.6569 20.6569 22 19 22H16C14.3431 22 13 20.6569 13 19V14ZM16 13C15.4477 13 15 13.4477 15 14V19C15 19.5523 15.4477 20 16 20H19C19.5523 20 20 19.5523 20 19V14C20 13.4477 19.5523 13 19 13H16Z" fill="#ACADC1" />
</svg>
